<?xml version="1.0" encoding="UTF-8"?>
<svg xmlns="http://www.w3.org/2000/svg" xmlns:xlink="http://www.w3.org/1999/xlink" width="16px" height="16px" viewBox="0 0 16 16" version="1.1">
<g id="surface1">
<path style=" stroke:none;fill-rule:nonzero;fill:rgb(99.607843%,63.137255%,17.254902%);fill-opacity:1;" d="M 0 0 C 5.28125 0 10.558594 0 16 0 C 16 5.28125 16 10.558594 16 16 C 10.71875 16 5.441406 16 0 16 C 0 10.71875 0 5.441406 0 0 Z M 0 0 "/>
<path style=" stroke:none;fill-rule:nonzero;fill:rgb(85.882353%,53.72549%,12.54902%);fill-opacity:1;" d="M 8.0625 4.160156 C 8.125 4.160156 8.183594 4.160156 8.246094 4.160156 C 8.246094 5.570312 8.246094 6.980469 8.246094 8.433594 C 8.914062 8.507812 8.914062 8.507812 9.679688 8.269531 C 9.769531 8.164062 9.808594 8.046875 9.808594 7.914062 C 9.808594 7.902344 9.808594 7.894531 9.808594 7.882812 C 9.808594 7.84375 9.808594 7.808594 9.808594 7.773438 C 9.808594 7.75 9.808594 7.722656 9.808594 7.699219 C 9.808594 7.632812 9.808594 7.570312 9.808594 7.503906 C 9.8125 7.4375 9.8125 7.371094 9.8125 7.304688 C 9.8125 7.171875 9.8125 7.042969 9.8125 6.910156 C 9.890625 6.910156 9.964844 6.910156 10.042969 6.910156 C 10.042969 7.414062 10.042969 7.914062 10.042969 8.433594 C 10.296875 8.429688 10.296875 8.429688 10.554688 8.429688 C 10.609375 8.429688 10.660156 8.429688 10.714844 8.425781 C 10.761719 8.425781 10.761719 8.425781 10.8125 8.425781 C 10.832031 8.425781 10.855469 8.425781 10.875 8.425781 C 11.042969 8.425781 11.042969 8.425781 11.207031 8.386719 C 11.214844 8.382812 11.222656 8.378906 11.230469 8.378906 C 11.386719 8.3125 11.511719 8.203125 11.578125 8.046875 C 11.601562 7.976562 11.613281 7.910156 11.613281 7.835938 C 11.613281 7.816406 11.613281 7.816406 11.613281 7.796875 C 11.613281 7.78125 11.613281 7.769531 11.613281 7.753906 C 11.613281 7.738281 11.613281 7.722656 11.613281 7.707031 C 11.613281 7.664062 11.613281 7.621094 11.613281 7.582031 C 11.613281 7.535156 11.613281 7.488281 11.613281 7.445312 C 11.613281 7.367188 11.613281 7.285156 11.613281 7.207031 C 11.613281 7.09375 11.613281 6.980469 11.617188 6.867188 C 11.617188 6.679688 11.617188 6.496094 11.617188 6.3125 C 11.617188 6.132812 11.617188 5.953125 11.617188 5.773438 C 11.617188 5.757812 11.617188 5.757812 11.617188 5.742188 C 11.617188 5.683594 11.617188 5.628906 11.617188 5.574219 C 11.621094 5.113281 11.621094 4.652344 11.621094 4.191406 C 11.65625 4.226562 11.6875 4.257812 11.714844 4.300781 C 11.722656 4.308594 11.726562 4.320312 11.734375 4.328125 C 11.742188 4.34375 11.742188 4.34375 11.753906 4.359375 C 11.769531 4.382812 11.78125 4.402344 11.796875 4.425781 C 11.804688 4.4375 11.8125 4.445312 11.820312 4.457031 C 11.855469 4.511719 11.890625 4.566406 11.925781 4.617188 C 11.9375 4.632812 11.9375 4.632812 11.949219 4.648438 C 11.964844 4.671875 11.976562 4.691406 11.992188 4.714844 C 12.027344 4.765625 12.066406 4.820312 12.101562 4.871094 C 12.113281 4.894531 12.128906 4.914062 12.144531 4.9375 C 12.152344 4.945312 12.160156 4.957031 12.164062 4.96875 C 12.1875 5 12.207031 5.03125 12.230469 5.0625 C 12.3125 5.183594 12.398438 5.308594 12.484375 5.433594 C 12.558594 5.542969 12.632812 5.652344 12.707031 5.761719 C 12.742188 5.816406 12.777344 5.867188 12.816406 5.921875 C 12.828125 5.941406 12.84375 5.964844 12.859375 5.984375 C 13.347656 6.703125 13.835938 7.421875 14.328125 8.136719 C 14.332031 8.148438 14.339844 8.160156 14.347656 8.167969 C 14.363281 8.191406 14.378906 8.210938 14.390625 8.234375 C 14.425781 8.285156 14.464844 8.339844 14.5 8.390625 C 14.582031 8.515625 14.667969 8.636719 14.753906 8.761719 C 14.828125 8.871094 14.902344 8.980469 14.976562 9.09375 C 15.011719 9.144531 15.046875 9.195312 15.085938 9.25 C 15.097656 9.269531 15.113281 9.292969 15.128906 9.3125 C 15.269531 9.523438 15.414062 9.734375 15.558594 9.945312 C 15.566406 9.957031 15.574219 9.96875 15.582031 9.976562 C 15.59375 10 15.609375 10.019531 15.625 10.042969 C 15.660156 10.09375 15.695312 10.148438 15.734375 10.203125 C 15.746094 10.21875 15.746094 10.21875 15.753906 10.234375 C 15.769531 10.253906 15.785156 10.273438 15.796875 10.292969 C 15.808594 10.3125 15.824219 10.332031 15.835938 10.351562 C 15.855469 10.378906 15.875 10.40625 15.894531 10.433594 C 15.996094 10.566406 16.019531 10.664062 16.015625 10.828125 C 16.015625 10.851562 16.015625 10.871094 16.015625 10.894531 C 16.015625 10.957031 16.015625 11.015625 16.015625 11.078125 C 16.015625 11.144531 16.015625 11.210938 16.015625 11.277344 C 16.015625 11.390625 16.015625 11.503906 16.015625 11.621094 C 16.011719 11.785156 16.011719 11.949219 16.011719 12.117188 C 16.011719 12.382812 16.011719 12.652344 16.011719 12.921875 C 16.007812 13.183594 16.007812 13.441406 16.007812 13.703125 C 16.007812 13.710938 16.007812 13.71875 16.007812 13.726562 C 16.007812 13.808594 16.007812 13.890625 16.007812 13.96875 C 16.003906 14.648438 16.003906 15.324219 16 16 C 15.347656 16.003906 14.695312 16.003906 14.039062 16.003906 C 14.03125 16.003906 14.023438 16.003906 14.011719 16.003906 C 13.800781 16.003906 13.589844 16.007812 13.382812 16.007812 C 13.277344 16.007812 13.175781 16.007812 13.074219 16.007812 C 13.0625 16.007812 13.050781 16.007812 13.042969 16.007812 C 12.710938 16.007812 12.375 16.007812 12.042969 16.007812 C 11.703125 16.011719 11.363281 16.011719 11.019531 16.011719 C 10.972656 16.011719 10.925781 16.011719 10.875 16.011719 C 10.867188 16.011719 10.855469 16.011719 10.847656 16.011719 C 10.695312 16.011719 10.542969 16.011719 10.386719 16.011719 C 10.234375 16.015625 10.082031 16.015625 9.929688 16.015625 C 9.835938 16.015625 9.746094 16.015625 9.652344 16.015625 C 9.585938 16.015625 9.519531 16.015625 9.449219 16.015625 C 9.421875 16.015625 9.394531 16.015625 9.367188 16.015625 C 9.148438 16.019531 9.148438 16.019531 9.097656 15.972656 C 9.070312 15.941406 9.050781 15.910156 9.03125 15.875 C 9.015625 15.855469 8.996094 15.835938 8.980469 15.816406 C 8.945312 15.777344 8.910156 15.738281 8.875 15.695312 C 8.839844 15.652344 8.804688 15.609375 8.765625 15.566406 C 8.71875 15.515625 8.675781 15.464844 8.628906 15.410156 C 8.605469 15.378906 8.578125 15.347656 8.554688 15.320312 C 8.507812 15.269531 8.464844 15.21875 8.421875 15.167969 C 8.390625 15.128906 8.355469 15.089844 8.320312 15.050781 C 8.292969 15.019531 8.269531 14.988281 8.242188 14.957031 C 8.207031 14.914062 8.171875 14.871094 8.132812 14.832031 C 8.085938 14.78125 8.039062 14.726562 7.996094 14.671875 C 7.972656 14.640625 7.945312 14.613281 7.917969 14.582031 C 7.882812 14.542969 7.851562 14.503906 7.816406 14.464844 C 7.78125 14.417969 7.746094 14.375 7.707031 14.335938 C 7.660156 14.285156 7.613281 14.230469 7.570312 14.175781 C 7.546875 14.144531 7.519531 14.117188 7.492188 14.085938 C 7.449219 14.039062 7.40625 13.988281 7.363281 13.933594 C 7.332031 13.894531 7.296875 13.855469 7.261719 13.816406 C 7.234375 13.789062 7.207031 13.757812 7.183594 13.726562 C 7.148438 13.683594 7.109375 13.640625 7.074219 13.597656 C 7.023438 13.546875 6.980469 13.492188 6.9375 13.4375 C 6.910156 13.410156 6.886719 13.378906 6.859375 13.351562 C 6.824219 13.3125 6.789062 13.273438 6.757812 13.230469 C 6.722656 13.1875 6.683594 13.144531 6.648438 13.101562 C 6.597656 13.050781 6.554688 13 6.511719 12.945312 C 6.484375 12.914062 6.460938 12.882812 6.433594 12.855469 C 6.398438 12.816406 6.363281 12.777344 6.332031 12.734375 C 6.296875 12.691406 6.257812 12.648438 6.21875 12.609375 C 6.171875 12.554688 6.128906 12.503906 6.085938 12.449219 C 6.058594 12.417969 6.035156 12.390625 6.007812 12.359375 C 5.960938 12.308594 5.917969 12.257812 5.878906 12.207031 C 5.851562 12.175781 5.828125 12.148438 5.800781 12.117188 C 5.761719 12.078125 5.726562 12.035156 5.691406 11.992188 C 5.675781 11.976562 5.675781 11.976562 5.664062 11.964844 C 5.644531 11.933594 5.636719 11.914062 5.632812 11.875 C 5.664062 11.859375 5.679688 11.871094 5.710938 11.878906 C 5.730469 11.886719 5.75 11.894531 5.769531 11.898438 C 5.777344 11.902344 5.785156 11.902344 5.789062 11.90625 C 5.828125 11.914062 5.867188 11.914062 5.90625 11.914062 C 5.914062 11.914062 5.925781 11.914062 5.933594 11.914062 C 5.964844 11.914062 5.996094 11.914062 6.023438 11.914062 C 6.046875 11.914062 6.070312 11.914062 6.089844 11.914062 C 6.152344 11.914062 6.210938 11.914062 6.273438 11.914062 C 6.339844 11.914062 6.40625 11.914062 6.46875 11.914062 C 6.613281 11.914062 6.757812 11.914062 6.898438 11.914062 C 6.988281 11.914062 7.078125 11.914062 7.167969 11.914062 C 7.414062 11.914062 7.664062 11.914062 7.910156 11.914062 C 7.925781 11.914062 7.941406 11.914062 7.957031 11.914062 C 7.972656 11.914062 7.988281 11.914062 8.003906 11.914062 C 8.039062 11.914062 8.070312 11.914062 8.101562 11.914062 C 8.113281 11.914062 8.113281 11.914062 8.125 11.914062 C 8.386719 11.914062 8.644531 11.914062 8.902344 11.914062 C 9.175781 11.914062 9.449219 11.914062 9.722656 11.914062 C 9.871094 11.914062 10.019531 11.914062 10.167969 11.914062 C 10.296875 11.914062 10.421875 11.914062 10.550781 11.914062 C 10.613281 11.914062 10.679688 11.914062 10.746094 11.914062 C 10.804688 11.914062 10.863281 11.914062 10.921875 11.914062 C 10.945312 11.914062 10.964844 11.914062 10.988281 11.914062 C 11.121094 11.914062 11.242188 11.910156 11.363281 11.847656 C 11.371094 11.84375 11.378906 11.839844 11.390625 11.835938 C 11.527344 11.75 11.558594 11.628906 11.601562 11.472656 C 11.601562 10.53125 11.605469 9.585938 11.609375 8.617188 C 9.570312 8.617188 7.527344 8.617188 5.425781 8.617188 C 5.417969 8.527344 5.410156 8.441406 5.402344 8.351562 C 5.398438 8.308594 5.394531 8.265625 5.390625 8.222656 C 5.386719 8.128906 5.386719 8.128906 5.40625 8.09375 C 5.433594 8.078125 5.464844 8.066406 5.496094 8.050781 C 5.523438 8.035156 5.550781 8.015625 5.578125 7.996094 C 5.585938 7.992188 5.59375 7.988281 5.601562 7.980469 C 5.707031 7.910156 5.808594 7.832031 5.90625 7.742188 C 5.929688 7.71875 5.953125 7.699219 5.980469 7.679688 C 6.132812 7.542969 6.238281 7.375 6.335938 7.199219 C 6.34375 7.199219 6.351562 7.199219 6.359375 7.199219 C 6.363281 7.210938 6.371094 7.21875 6.375 7.230469 C 6.53125 7.542969 6.769531 7.78125 7.050781 7.984375 C 7.054688 7.988281 7.0625 7.992188 7.070312 7.996094 C 7.375 8.21875 7.714844 8.34375 8.085938 8.398438 C 8.085938 7.933594 8.085938 7.46875 8.085938 6.992188 C 8.046875 6.980469 8.011719 6.96875 7.972656 6.957031 C 7.867188 6.902344 7.777344 6.832031 7.695312 6.75 C 7.6875 6.742188 7.679688 6.734375 7.671875 6.730469 C 7.5 6.566406 7.382812 6.335938 7.304688 6.117188 C 7.296875 6.105469 7.292969 6.089844 7.289062 6.078125 C 7.21875 5.882812 7.191406 5.675781 7.164062 5.472656 C 7.1875 5.472656 7.1875 5.472656 7.210938 5.472656 C 7.265625 5.46875 7.324219 5.46875 7.378906 5.46875 C 7.402344 5.46875 7.425781 5.46875 7.453125 5.46875 C 7.714844 5.46875 7.714844 5.46875 7.945312 5.351562 C 8.0625 5.21875 8.058594 5.070312 8.058594 4.902344 C 8.058594 4.878906 8.058594 4.859375 8.058594 4.835938 C 8.058594 4.78125 8.058594 4.726562 8.058594 4.667969 C 8.058594 4.609375 8.058594 4.554688 8.0625 4.496094 C 8.0625 4.382812 8.0625 4.269531 8.0625 4.160156 Z M 8.0625 4.160156 "/>
<path style=" stroke:none;fill-rule:nonzero;fill:rgb(99.607843%,99.607843%,99.607843%);fill-opacity:1;" d="M 5.390625 8.617188 C 7.445312 8.617188 9.496094 8.617188 11.609375 8.617188 C 11.609375 11.640625 11.609375 11.640625 11.460938 11.796875 C 11.355469 11.886719 11.21875 11.925781 11.082031 11.921875 C 11.070312 11.921875 11.070312 11.921875 11.054688 11.925781 C 11.023438 11.925781 10.996094 11.925781 10.964844 11.925781 C 10.941406 11.925781 10.921875 11.925781 10.898438 11.925781 C 10.835938 11.925781 10.777344 11.925781 10.714844 11.925781 C 10.652344 11.925781 10.585938 11.925781 10.519531 11.925781 C 10.375 11.925781 10.234375 11.925781 10.089844 11.925781 C 10 11.925781 9.910156 11.925781 9.820312 11.925781 C 9.574219 11.925781 9.328125 11.925781 9.082031 11.925781 C 9.0625 11.925781 9.046875 11.925781 9.03125 11.925781 C 9.015625 11.925781 9 11.925781 8.984375 11.925781 C 8.953125 11.925781 8.917969 11.925781 8.886719 11.925781 C 8.878906 11.925781 8.871094 11.925781 8.863281 11.925781 C 8.605469 11.925781 8.347656 11.925781 8.089844 11.925781 C 7.816406 11.925781 7.542969 11.925781 7.269531 11.925781 C 7.117188 11.925781 6.96875 11.925781 6.820312 11.925781 C 6.695312 11.925781 6.566406 11.925781 6.441406 11.925781 C 6.375 11.925781 6.3125 11.925781 6.246094 11.925781 C 6.1875 11.925781 6.128906 11.925781 6.066406 11.925781 C 6.046875 11.925781 6.023438 11.925781 6.003906 11.925781 C 5.816406 11.925781 5.660156 11.90625 5.519531 11.773438 C 4.789062 11.011719 5.390625 9.667969 5.390625 8.617188 Z M 5.390625 8.617188 "/>
<path style=" stroke:none;fill-rule:nonzero;fill:rgb(99.607843%,99.607843%,99.607843%);fill-opacity:1;" d="M 8.285156 4.132812 C 8.300781 4.132812 8.300781 4.132812 8.320312 4.132812 C 8.332031 4.132812 8.347656 4.132812 8.359375 4.132812 C 8.375 4.132812 8.386719 4.132812 8.402344 4.132812 C 8.417969 4.132812 8.433594 4.132812 8.449219 4.132812 C 8.492188 4.132812 8.53125 4.132812 8.574219 4.132812 C 8.617188 4.132812 8.660156 4.132812 8.703125 4.132812 C 8.789062 4.132812 8.871094 4.132812 8.953125 4.132812 C 9.0625 4.132812 9.175781 4.132812 9.285156 4.136719 C 9.460938 4.136719 9.636719 4.136719 9.8125 4.136719 C 9.8125 4.582031 9.8125 5.03125 9.8125 5.496094 C 9.890625 5.496094 9.964844 5.496094 10.042969 5.496094 C 10.042969 5.046875 10.042969 4.597656 10.042969 4.136719 C 10.5625 4.136719 11.078125 4.136719 11.609375 4.136719 C 11.613281 4.621094 11.613281 5.109375 11.613281 5.59375 C 11.613281 5.652344 11.613281 5.710938 11.613281 5.765625 C 11.613281 5.777344 11.613281 5.789062 11.613281 5.800781 C 11.613281 5.988281 11.613281 6.171875 11.613281 6.355469 C 11.613281 6.546875 11.617188 6.738281 11.617188 6.925781 C 11.617188 7.042969 11.617188 7.160156 11.617188 7.277344 C 11.617188 7.359375 11.617188 7.441406 11.617188 7.519531 C 11.617188 7.566406 11.617188 7.613281 11.617188 7.660156 C 11.617188 7.703125 11.617188 7.746094 11.617188 7.785156 C 11.617188 7.808594 11.617188 7.832031 11.617188 7.855469 C 11.617188 7.996094 11.574219 8.101562 11.484375 8.214844 C 11.480469 8.21875 11.472656 8.226562 11.46875 8.234375 C 11.382812 8.332031 11.25 8.390625 11.128906 8.421875 C 11.121094 8.421875 11.113281 8.425781 11.105469 8.425781 C 11.066406 8.4375 11.023438 8.433594 10.980469 8.433594 C 10.96875 8.433594 10.960938 8.433594 10.949219 8.433594 C 10.917969 8.433594 10.882812 8.433594 10.851562 8.433594 C 10.828125 8.433594 10.808594 8.433594 10.789062 8.433594 C 10.710938 8.433594 10.636719 8.433594 10.558594 8.433594 C 10.304688 8.433594 10.304688 8.433594 10.042969 8.433594 C 10.042969 7.929688 10.042969 7.429688 10.042969 6.910156 C 9.96875 6.910156 9.894531 6.910156 9.8125 6.910156 C 9.816406 6.945312 9.816406 6.976562 9.816406 7.011719 C 9.816406 7.121094 9.816406 7.230469 9.816406 7.34375 C 9.816406 7.410156 9.816406 7.476562 9.816406 7.542969 C 9.816406 7.605469 9.820312 7.671875 9.820312 7.734375 C 9.820312 7.757812 9.820312 7.785156 9.820312 7.808594 C 9.820312 7.992188 9.808594 8.136719 9.679688 8.277344 C 9.515625 8.433594 9.300781 8.4375 9.089844 8.433594 C 9.066406 8.433594 9.039062 8.433594 9.015625 8.433594 C 8.953125 8.433594 8.890625 8.433594 8.824219 8.433594 C 8.761719 8.433594 8.695312 8.433594 8.628906 8.433594 C 8.503906 8.433594 8.375 8.433594 8.246094 8.433594 C 8.246094 7.886719 8.246094 7.339844 8.246094 6.792969 C 8.246094 6.730469 8.246094 6.667969 8.246094 6.601562 C 8.246094 6.589844 8.246094 6.578125 8.246094 6.5625 C 8.246094 6.355469 8.246094 6.148438 8.246094 5.941406 C 8.246094 5.726562 8.246094 5.515625 8.246094 5.300781 C 8.246094 5.167969 8.246094 5.039062 8.246094 4.90625 C 8.246094 4.816406 8.246094 4.726562 8.246094 4.636719 C 8.246094 4.582031 8.246094 4.53125 8.246094 4.480469 C 8.246094 4.433594 8.246094 4.382812 8.246094 4.335938 C 8.246094 4.320312 8.246094 4.300781 8.246094 4.285156 C 8.246094 4.261719 8.246094 4.238281 8.246094 4.214844 C 8.246094 4.203125 8.246094 4.1875 8.246094 4.175781 C 8.25 4.140625 8.25 4.136719 8.285156 4.132812 Z M 8.285156 4.132812 "/>
<path style=" stroke:none;fill-rule:nonzero;fill:rgb(99.607843%,99.607843%,99.607843%);fill-opacity:1;" d="M 4.480469 4.160156 C 5.664062 4.160156 6.84375 4.160156 8.0625 4.160156 C 8.0625 5.234375 8.0625 5.234375 7.96875 5.347656 C 7.855469 5.457031 7.710938 5.472656 7.5625 5.472656 C 7.546875 5.472656 7.546875 5.472656 7.527344 5.472656 C 7.492188 5.472656 7.457031 5.472656 7.417969 5.472656 C 7.394531 5.472656 7.371094 5.472656 7.347656 5.472656 C 7.285156 5.472656 7.226562 5.472656 7.164062 5.472656 C 7.167969 5.476562 7.167969 5.484375 7.167969 5.492188 C 7.179688 5.539062 7.191406 5.585938 7.199219 5.632812 C 7.273438 6.050781 7.398438 6.425781 7.695312 6.738281 C 7.699219 6.746094 7.707031 6.753906 7.714844 6.757812 C 7.757812 6.808594 7.804688 6.84375 7.859375 6.878906 C 7.867188 6.886719 7.867188 6.886719 7.878906 6.890625 C 7.945312 6.9375 8.007812 6.960938 8.085938 6.992188 C 8.085938 7.457031 8.085938 7.917969 8.085938 8.398438 C 7.757812 8.398438 7.421875 8.246094 7.152344 8.0625 C 7.144531 8.058594 7.136719 8.054688 7.128906 8.046875 C 6.84375 7.851562 6.464844 7.570312 6.363281 7.21875 C 6.359375 7.210938 6.359375 7.207031 6.359375 7.199219 C 6.351562 7.199219 6.34375 7.199219 6.335938 7.199219 C 6.332031 7.207031 6.328125 7.214844 6.324219 7.222656 C 6.121094 7.714844 5.5625 8.074219 5.097656 8.273438 C 4.882812 8.359375 4.65625 8.421875 4.421875 8.421875 C 4.421875 7.964844 4.421875 7.507812 4.421875 7.039062 C 4.457031 7.027344 4.492188 7.015625 4.527344 7.003906 C 4.695312 6.9375 4.824219 6.851562 4.953125 6.726562 C 4.964844 6.71875 4.972656 6.707031 4.984375 6.695312 C 5.132812 6.542969 5.246094 6.363281 5.320312 6.164062 C 5.324219 6.15625 5.328125 6.148438 5.332031 6.140625 C 5.414062 5.925781 5.453125 5.695312 5.484375 5.472656 C 5.476562 5.472656 5.46875 5.472656 5.460938 5.472656 C 5.382812 5.472656 5.304688 5.472656 5.226562 5.472656 C 5.195312 5.472656 5.167969 5.472656 5.136719 5.472656 C 5.097656 5.472656 5.054688 5.476562 5.011719 5.476562 C 4.992188 5.476562 4.992188 5.476562 4.972656 5.476562 C 4.832031 5.476562 4.703125 5.457031 4.597656 5.359375 C 4.332031 5.085938 4.480469 4.292969 4.480469 4.160156 Z M 4.480469 4.160156 "/>
<path style=" stroke:none;fill-rule:nonzero;fill:rgb(85.882353%,53.72549%,12.54902%);fill-opacity:1;" d="M 7.105469 9.941406 C 8.023438 9.941406 8.941406 9.941406 9.882812 9.941406 C 9.882812 10.15625 9.882812 10.375 9.882812 10.597656 C 8.96875 10.597656 8.050781 10.597656 7.105469 10.597656 C 7.105469 10.382812 7.105469 10.164062 7.105469 9.941406 Z M 7.105469 9.941406 "/>
<path style=" stroke:none;fill-rule:nonzero;fill:rgb(85.882353%,53.72549%,12.156863%);fill-opacity:1;" d="M 9.824219 4.160156 C 9.898438 4.160156 9.96875 4.160156 10.042969 4.160156 C 10.042969 4.597656 10.042969 5.039062 10.042969 5.496094 C 9.972656 5.496094 9.898438 5.496094 9.824219 5.496094 C 9.824219 5.054688 9.824219 4.613281 9.824219 4.160156 Z M 9.824219 4.160156 "/>
</g>
</svg>
